PathFileType	4	(X/Y/Z)	PS_ngait_og_ss9.trc	
DataRate	CameraRate	NumFrames	NumMarkers	Units	OrigDataRate	OrigDataStartFrame	OrigNumFrames	
120.00	120.00	8	39	mm	120.00	553	130	
Frame#	Time	Sternum			Neck			RShoulder			LShoulder			Xiphoid			Thoracic			RAsis			LAsis			RPsis			LPsis			LThighSuperior			LThighInferior			LThighLateral			LShankSuperior			LShankInferior			LShankLateral			RThighSuperior			RThighInferior			RThighLateral			RShankSuperior			RShankInferior			RShankLateral			RHeel			RToe			RMidfootMedial			RMidfootLateral			RHindfoot			RMidfootSuperior			RToeMedial			RToeLateral			LHeel			LToe			LMidfootMedial			LMidfootLateral			LHindfoot			LMidfootSuperior			LToeMedial			LToeLateral			Sacral			
		X1	Y1	Z1	X2	Y2	Z2	X3	Y3	Z3	X4	Y4	Z4	X5	Y5	Z5	X6	Y6	Z6	X7	Y7	Z7	X8	Y8	Z8	X9	Y9	Z9	X10	Y10	Z10	X11	Y11	Z11	X12	Y12	Z12	X13	Y13	Z13	X14	Y14	Z14	X15	Y15	Z15	X16	Y16	Z16	X17	Y17	Z17	X18	Y18	Z18	X19	Y19	Z19	X20	Y20	Z20	X21	Y21	Z21	X22	Y22	Z22	X23	Y23	Z23	X24	Y24	Z24	X25	Y25	Z25	X26	Y26	Z26	X27	Y27	Z27	X28	Y28	Z28	X29	Y29	Z29	X30	Y30	Z30	X31	Y31	Z31	X32	Y32	Z32	X33	Y33	Z33	X34	Y34	Z34	X35	Y35	Z35	X36	Y36	Z36	X37	Y37	Z37	X38	Y38	Z38	X39	Y39	Z39	

49	0.400	469.04764	1452.83057	136.05658	307.37595	1553.10486	133.82187	349.92612	1543.14465	296.59253	340.01764	1538.91357	-3.39457	500.18781	1292.76355	146.30177	223.10741	1337.27771	149.18007	409.76501	1025.23132	288.96725	416.30939	1028.38403	13.47953	223.09277	1058.13257	206.58603	218.39465	1050.10718	101.87510	337.57520	850.91876	-36.48278	339.65692	616.83716	4.34180	423.67740	716.18097	44.52065	311.94003	378.86282	5.98095	259.71262	184.83479	45.70655	323.39151	272.39432	76.95126	398.60474	848.01251	330.28622	488.71216	618.75000	324.74380	515.22858	787.91772	272.19995	485.01883	465.41202	336.13638	471.64182	212.07759	299.13260	531.27155	336.87326	258.17322	382.63977	96.44693	245.95894	697.31879	75.90926	249.73100	600.21722	57.59037	201.30768	597.48492	51.52850	316.00879	546.54596	54.34465	308.51172	563.18945	117.07967	253.91740	643.26001	61.10879	203.42119	647.08240	59.44531	306.81915	161.98344	64.37437	104.81293	471.86304	60.85232	60.48007	377.49146	36.97861	123.96346	366.41949	32.21514	6.93110	312.33670	29.45521	22.09557	348.98834	96.32430	74.86414	419.55270	38.22309	115.22904	410.67197	42.54524	11.68247	220.74371	1054.11987	154.23056 
50	0.408	477.92783	1451.66724	136.58968	316.32358	1552.12805	134.64597	359.04156	1542.05359	297.20517	348.58478	1538.04126	-2.58244	508.75195	1291.44128	146.43793	231.74947	1336.42883	150.19920	418.40515	1023.52576	288.65991	423.72491	1027.29822	13.21018	231.44519	1057.07336	207.19254	226.34521	1049.43835	102.69579	344.05945	850.31543	-36.55600	344.40118	615.95374	4.49598	429.23172	714.82819	44.44172	314.78604	378.42007	6.14443	261.19547	184.46515	46.31040	324.81656	272.14233	77.44099	406.48813	846.23822	329.19159	496.49252	617.12433	323.40704	522.99176	786.21472	270.70145	496.66107	462.88611	334.76416	495.89581	208.99228	298.65216	549.27124	336.82819	257.09006	414.13614	88.37128	244.98651	727.95477	82.92503	249.58971	632.11823	59.75714	201.43355	629.64099	54.07112	315.91132	578.65253	54.32954	308.21396	591.98340	117.54313	253.66045	674.66656	65.30765	203.37283	678.59448	64.29204	306.77524	161.99200	64.30304	104.84902	472.06125	60.50780	60.46587	377.54895	36.90010	124.01456	366.34656	32.24157	6.85423	312.26495	29.54807	22.05132	349.15048	96.09531	74.99482	419.68924	38.02223	115.21505	410.79019	42.45304	11.67464	228.89520	1053.25586	154.94417 
51	0.417	486.72760	1450.40881	137.21976	325.30301	1551.04626	135.49104	368.22656	1540.89819	297.96039	357.23065	1537.15564	-1.55916	517.40387	1290.12134	146.68190	240.47560	1335.43872	151.38585	427.24780	1021.70264	288.47995	431.42075	1026.35986	13.03613	240.01120	1055.88489	207.91660	234.48430	1048.57178	103.47456	350.73724	849.76483	-36.42033	349.04944	615.15857	4.84025	434.69009	713.56366	44.55289	317.59061	377.98853	6.21608	262.13931	184.12904	46.24183	326.46640	271.47815	77.89063	414.03430	843.70483	327.95401	503.72485	615.20929	322.09436	530.41779	783.75256	269.05997	507.63223	460.19974	333.25769	519.71307	206.53268	298.23245	566.93945	336.56030	256.32343	445.07980	81.31164	243.65623	757.96472	90.85912	249.79659	663.24579	63.50177	201.34297	660.80615	57.54397	316.10971	609.92224	55.33805	308.08121	620.58350	119.40797	253.61276	705.60962	70.96189	203.43875	709.35651	69.97434	306.84814	161.97856	64.33947	104.91995	472.20792	60.12073	60.37755	377.90796	36.69444	123.84534	366.34918	32.04796	6.73789	312.30072	29.52422	22.07499	349.21967	95.90818	75.07581	419.83765	37.69739	115.15393	410.86993	42.19627	11.62238	237.24774	1052.22839	155.69557 
52	0.425	495.62677	1449.02979	137.76675	334.37277	1549.89697	136.41956	377.44537	1539.65430	298.77286	365.84558	1536.09985	-0.52545	526.19775	1288.80457	146.82889	249.21120	1334.35339	152.53537	436.35062	1020.18555	288.41904	439.20285	1025.34363	12.92624	248.76808	1054.67432	208.79675	242.71138	1047.58557	104.32117	357.88531	849.30743	-36.54319	353.91547	614.19135	4.85845	440.36615	712.12695	44.33798	320.24277	377.42648	6.41987	263.36627	184.07983	46.48341	328.12177	270.89627	78.05614	421.56995	841.02167	326.91022	510.38699	612.98975	320.87048	537.83325	781.14069	267.61230	517.95343	457.49249	331.71396	542.92401	204.72832	297.73654	584.37701	336.77985	255.94539	475.24426	75.46298	242.70802	786.91046	100.08765	250.71426	693.51678	68.45698	201.23151	691.16071	62.13402	316.27243	640.41614	57.42174	308.19556	648.33319	122.25055	253.60329	735.87262	77.99001	203.88655	738.89984	76.74345	307.31671	161.98666	65.11617	105.84438	472.45633	59.69211	60.32673	378.10025	36.56805	123.79157	366.40976	31.93888	6.69095	312.31815	29.49669	22.09505	349.24576	95.85087	75.08887	420.01874	37.43359	115.10592	411.05716	41.96781	11.57538	245.73973	1051.12988	156.55896 
53	0.433	504.40302	1447.58521	138.48669	343.34607	1548.64844	137.42455	386.71329	1538.29321	299.76926	374.37656	1535.17029	0.54213	535.10071	1287.47363	146.97865	257.98096	1333.21436	153.77872	445.43369	1018.37842	288.43118	447.33582	1024.49597	13.00693	257.63290	1053.39722	209.56296	251.15640	1046.49280	105.12356	364.67007	848.22766	-36.30079	358.85208	613.30237	5.14121	446.11288	710.76862	44.38763	323.28476	376.71796	7.14104	264.41180	183.95848	46.62666	330.07040	270.26953	78.44853	428.87552	837.79919	326.10880	516.36713	610.40851	319.58734	545.01862	777.98944	266.40701	528.06732	454.98172	330.23975	565.32574	203.63008	297.32034	601.09943	337.32385	255.88123	504.00943	70.85517	242.18193	814.14581	109.94340	251.76244	722.27502	74.43838	201.36433	720.21600	67.42218	316.96689	669.45569	60.34291	308.49298	674.70337	125.88298	253.98579	764.40839	85.93202	204.47984	766.90857	84.07146	307.91486	162.19135	65.10931	105.76558	472.58878	59.26865	60.20542	378.02350	36.63375	123.86762	366.48477	31.84533	6.36040	312.31522	29.51370	22.11029	349.29376	95.76546	75.09744	420.08868	37.34468	115.05961	411.09317	41.68759	11.52382	254.39465	1049.94507	157.34326 
54	0.442	513.29291	1446.27832	139.42365	352.31570	1547.36621	138.60190	396.01974	1536.84521	300.87677	383.06598	1534.04541	1.81382	544.00903	1286.15869	147.25171	266.80841	1331.94763	155.06459	454.58569	1016.73126	288.36456	455.22952	1023.49933	12.84713	266.42413	1051.92419	210.43878	259.51785	1045.33618	105.99239	371.81158	847.42651	-36.00829	363.95587	612.23810	5.05959	452.02673	709.23492	44.07290	325.65479	376.10818	6.91429	265.52670	184.17259	46.70759	332.20853	269.53705	78.68375	436.21082	834.60345	325.55435	521.79565	607.59564	318.26376	552.23376	774.86499	265.44867	538.09027	452.51538	328.81519	586.56390	203.24286	296.95557	617.37756	338.28400	255.68858	531.24762	67.32859	242.00612	839.97327	120.03602	253.54939	750.91479	79.98127	202.91434	747.49414	73.27786	317.99133	697.19055	63.89647	309.14722	699.90253	129.11818	254.50015	791.88678	93.31747	206.01192	793.57690	92.22245	309.47427	162.24727	65.23620	105.77544	472.78049	58.89074	60.11274	377.47458	36.46803	124.52377	366.59644	31.42049	6.83214	312.33063	29.58550	22.08938	349.40436	95.65664	75.12959	420.31995	37.26701	115.12373	411.19534	41.20362	11.58298	262.97101	1048.63013	158.21559 
55	0.450	522.25177	1444.95203	140.24623	361.20905	1546.07263	139.97714	405.27814	1535.36389	302.20642	391.67599	1533.04358	3.14956	552.91571	1284.73315	147.68291	275.68112	1330.63904	156.43188	463.91086	1015.04626	288.27374	463.39584	1022.55750	12.76403	275.42328	1050.43555	211.22992	268.10538	1044.15771	106.84401	379.09845	846.63031	-35.75385	369.34592	611.35101	5.29963	458.22690	707.87842	44.07983	328.76746	375.59253	6.80999	266.79422	183.92120	46.98505	334.27463	268.93646	79.00710	443.41589	831.12115	325.23962	527.01752	604.62640	316.75241	559.31873	771.45386	264.73013	547.92224	450.26962	327.19229	606.58606	203.17221	296.46021	632.86639	339.36783	255.44360	557.02753	64.68418	241.95187	864.10016	129.77739	255.68019	777.17767	86.12689	204.26111	772.46368	78.93396	318.42648	723.36713	67.81905	309.60367	723.77161	133.10184	255.43680	817.55804	101.14065	207.72423	818.40955	100.04397	311.19687	162.31117	65.37862	105.85025	472.96390	58.48826	60.06790	377.64386	36.74707	124.42370	366.71518	31.26461	6.92817	312.35587	29.65844	22.08795	349.66904	95.50584	75.32703	420.37811	37.30120	115.12919	411.33508	40.87149	11.56801	271.76431	1047.29663	159.03696 
56	0.458	531.15375	1443.63416	141.35199	369.97745	1544.72375	141.43451	414.45700	1533.80701	303.58737	400.28513	1532.04724	4.60911	561.86914	1283.37903	148.15154	284.57663	1329.19800	157.87611	473.40356	1013.29407	288.21869	471.90021	1021.52155	12.82846	284.64569	1048.93884	211.95955	276.94681	1042.83533	107.66728	386.26288	845.51239	-35.46936	374.98972	610.36499	5.56218	464.68076	706.42303	44.10927	331.95352	375.30450	6.82493	268.12051	183.96448	47.15048	336.15100	268.22665	79.43623	450.57904	827.59479	325.09091	532.23285	601.76978	315.07483	566.36163	767.99878	264.17752	557.57605	448.22769	325.47150	625.76575	203.45872	296.39722	647.31915	340.21887	255.01907	581.21704	62.73493	241.83253	886.24463	138.89313	257.93341	801.23999	92.49126	205.49741	795.84448	84.49844	319.51581	747.56622	71.87506	310.69101	745.89227	137.33403	256.52335	841.12573	108.92640	209.43306	841.16132	107.27381	312.90182	162.39438	65.56605	105.92960	473.37378	57.86716	60.06742	377.72510	36.77966	124.51508	366.63794	31.42107	6.62298	312.34518	29.75591	22.04492	349.99149	95.18203	75.54695	420.62494	37.04781	115.11300	411.61343	40.75577	11.55391	280.79626	1045.88708	159.81342 
